<svg xmlns="http://www.w3.org/2000/svg" xmlns:xlink="http://www.w3.org/1999/xlink" version="1.1" data-diagram-type="DESCRIPTION" style="width:1382px;height:261px;background:#FFFFFF;" width="1382px" height="261px" viewBox="0 0 1382 261" zoomAndPan="magnify" preserveAspectRatio="none" contentStyleType="text/css"><?plantuml 1.2026.7beta11?><defs/><g font-family="sans-serif" lengthAdjust="spacing"><g class="title" data-source-line="1"><text x="549.024" y="22.995" fill="#000" font-size="14" textLength="277.375" font-weight="700">Level 2 DFD - Artifact Management</text></g><!--entity P41--><g class="entity" data-qualified-name="P41" id="ent0001" data-source-line="5"><rect x="7" y="111.423" width="115.033" height="68.891" fill="#F1F1F1" style="stroke:#181818;stroke-width:0.5;" rx="2.5" ry="2.5"/><text x="17" y="134.418" fill="#000" font-size="14" textLength="22.265">4.1</text><text x="17" y="150.715" fill="#000" font-size="14" textLength="95.033">Receive Build</text><text x="17" y="167.012" fill="#000" font-size="14" textLength="48.631">Output</text></g><!--entity P42--><g class="entity" data-qualified-name="P42" id="ent0002" data-source-line="6"><rect x="289.58" y="50.423" width="96.904" height="68.891" fill="#F1F1F1" style="stroke:#181818;stroke-width:0.5;" rx="2.5" ry="2.5"/><text x="299.58" y="73.418" fill="#000" font-size="14" textLength="22.265">4.2</text><text x="299.58" y="89.715" fill="#000" font-size="14" textLength="76.904">Store Build</text><text x="299.58" y="106.012" fill="#000" font-size="14" textLength="51.406">Artifact</text></g><!--entity P43--><g class="entity" data-qualified-name="P43" id="ent0003" data-source-line="7"><rect x="274.03" y="162.423" width="128.008" height="68.891" fill="#F1F1F1" style="stroke:#181818;stroke-width:0.5;" rx="2.5" ry="2.5"/><text x="284.03" y="185.418" fill="#000" font-size="14" textLength="22.265">4.3</text><text x="284.03" y="201.715" fill="#000" font-size="14" textLength="108.008">Build Container</text><text x="284.03" y="218.012" fill="#000" font-size="14" textLength="43.846">Image</text></g><!--entity P44--><g class="entity" data-qualified-name="P44" id="ent0004" data-source-line="8"><rect x="574.31" y="178.423" width="120.283" height="68.891" fill="#F1F1F1" style="stroke:#181818;stroke-width:0.5;" rx="2.5" ry="2.5"/><text x="584.31" y="201.418" fill="#000" font-size="14" textLength="22.265">4.4</text><text x="584.31" y="217.715" fill="#000" font-size="14" textLength="100.283">Push Image to</text><text x="584.31" y="234.012" fill="#000" font-size="14" textLength="57.941">Registry</text></g><!--entity P45--><g class="entity" data-qualified-name="P45" id="ent0005" data-source-line="9"><rect x="889.68" y="58.423" width="113.167" height="68.891" fill="#F1F1F1" style="stroke:#181818;stroke-width:0.5;" rx="2.5" ry="2.5"/><text x="899.68" y="81.418" fill="#000" font-size="14" textLength="22.265">4.5</text><text x="899.68" y="97.715" fill="#000" font-size="14" textLength="93.167">Store Artifact</text><text x="899.68" y="114.012" fill="#000" font-size="14" textLength="66.295">Metadata</text></g><!--entity Storage2--><g class="entity" data-qualified-name="Storage2" id="ent0006" data-source-line="11"><path d="M572.04,92.073 C572.04,82.073 634.451,82.073 634.451,82.073 C634.451,82.073 696.862,82.073 696.862,92.073 L696.862,133.667 C696.862,143.667 634.451,143.667 634.451,143.667 C634.451,143.667 572.04,143.667 572.04,133.667 L572.04,92.073" style="stroke:#181818;stroke-width:0.5;" fill="#F1F1F1"/><path d="M572.04,92.073 C572.04,102.073 634.451,102.073 634.451,102.073 C634.451,102.073 696.862,102.073 696.862,92.073" style="stroke:#181818;stroke-width:0.5;" fill="none"/><text x="582.04" y="119.068" fill="#000" font-size="14" textLength="19.688">D3</text><text x="582.04" y="135.365" fill="#000" font-size="14" textLength="104.822">Object Storage</text></g><!--entity DB3--><g class="entity" data-qualified-name="DB3" id="ent0007" data-source-line="12"><path d="M1256.67,72.073 C1256.67,62.073 1307.046,62.073 1307.046,62.073 C1307.046,62.073 1357.423,62.073 1357.423,72.073 L1357.423,113.667 C1357.423,123.667 1307.046,123.667 1307.046,123.667 C1307.046,123.667 1256.67,123.667 1256.67,113.667 L1256.67,72.073" style="stroke:#181818;stroke-width:0.5;" fill="#F1F1F1"/><path d="M1256.67,72.073 C1256.67,82.073 1307.046,82.073 1307.046,82.073 C1307.046,82.073 1357.423,82.073 1357.423,72.073" style="stroke:#181818;stroke-width:0.5;" fill="none"/><text x="1266.67" y="99.068" fill="#000" font-size="14" textLength="19.688">D1</text><text x="1266.67" y="115.365" fill="#000" font-size="14" textLength="80.753">PostgreSQL</text></g><!--entity Registry2--><g class="entity" data-qualified-name="Registry2" id="ent0008" data-source-line="13"><path d="M875.383,182.762 C878.763,176.807 883.199,175.379 887.715,181.613 C889.877,176.457 894.709,175.309 898.293,180.1 C902.484,173.12 906.562,173.746 911.481,179.336 C916.172,173.761 920.655,175.081 924.178,180.665 C926.97,174.505 930.672,173.9 935.724,178.162 C938.536,172.695 944.037,172.743 946.824,178.187 C950.524,172.561 956.355,171.93 959.513,178.741 C964.188,173.54 967.718,174.561 970.709,180.443 C974.092,174.083 980.05,174.074 983.302,180.571 C986.17,174.963 991.324,174.284 995.073,179.624 C999.526,173.79 1005.832,175.502 1008.474,181.65 C1010.979,176.238 1016.287,176.745 1019.403,180.956 C1026.437,184.574 1027.352,191.724 1021.212,196.842 C1027.136,201.611 1026.148,208.888 1018.939,211.639 C1016.515,218.959 1011.949,219.489 1006.612,214.574 C1003.191,219.494 999.211,219.595 995.436,214.99 C991.925,221.139 987.641,222.532 982.927,216.195 C980.591,223.075 975.264,222.271 971.189,218.03 C967.851,224.153 962.843,224.036 958.481,219.22 C956.128,225.629 951.737,225.618 947.281,221.445 C942.469,227.751 937.78,226.414 934.813,219.681 C930.603,224.43 924.871,224.773 922.524,217.739 C917.56,222.453 913.736,222.711 910.904,215.636 C907.509,221.285 902.331,220.472 899.591,214.972 C895.966,220.074 890.338,219.317 887.586,213.969 C883.229,219.047 878.263,218.99 874.992,212.76 C866.842,210.019 864.531,204.83 870.749,197.968 C864.503,191.212 865.991,184.752 875.383,182.762" style="stroke:#181818;stroke-width:0.5;" fill="#F1F1F1"/><text x="880.86" y="200.718" fill="#000" font-size="14" textLength="130.806">Container Registry</text></g><!--link P41 to P42--><g class="link" data-entity-1="ent0001" data-entity-2="ent0002" id="lnk9" data-source-line="15" data-link-type="dependency"><path d="M122.44,133.083 C171.89,121.973 237.812,107.159 284.372,96.699" style="stroke:#181818;stroke-width:1;" fill="none" id="P41-to-P42"/><polygon points="289.25,95.603,279.592,93.673,284.372,96.699,281.346,101.478,289.25,95.603" fill="#181818" style="stroke:#181818;stroke-width:1;stroke-linejoin:miter;stroke-miterlimit:10;"/><text x="153.03" y="101.93" fill="#000" font-size="13" textLength="90.346">Build artifacts</text></g><!--link P41 to P43--><g class="link" data-entity-1="ent0001" data-entity-2="ent0003" id="lnk10" data-source-line="16" data-link-type="dependency"><path d="M122.22,158.703 C132.14,160.843 142.38,162.973 152.03,164.863 C192.34,172.773 232.848,179.831 268.618,185.791" style="stroke:#181818;stroke-width:1;" fill="none" id="P41-to-P43"/><polygon points="273.55,186.613,265.33,181.188,268.618,185.791,264.015,189.079,273.55,186.613" fill="#181818" style="stroke:#181818;stroke-width:1;stroke-linejoin:miter;stroke-miterlimit:10;"/><text x="158.53" y="160.93" fill="#000" font-size="13" textLength="79.644">Build output</text></g><!--link P42 to Storage2--><g class="link" data-entity-1="ent0002" data-entity-2="ent0006" id="lnk11" data-source-line="18" data-link-type="dependency"><path d="M386.67,89.393 C436.96,94.183 511.452,101.27 566.572,106.51" style="stroke:#181818;stroke-width:1;" fill="none" id="P42-to-Storage2"/><polygon points="571.55,106.983,562.969,102.149,566.572,106.51,562.212,110.113,571.55,106.983" fill="#181818" style="stroke:#181818;stroke-width:1;stroke-linejoin:miter;stroke-miterlimit:10;"/><text x="448.04" y="89.93" fill="#000" font-size="13" textLength="78.438">Artifact files</text></g><!--link Storage2 to P42--><g class="link" data-entity-1="ent0006" data-entity-2="ent0002" id="lnk12" data-source-line="19" data-link-type="dependency"><path d="M571.98,126.573 C531.75,133.313 478.27,138.033 432.04,127.863 C416.75,124.503 405.52,120.49 391.4,113.89" style="stroke:#181818;stroke-width:1;" fill="none" id="Storage2-to-P42"/><polygon points="386.87,111.773,393.329,119.208,391.4,113.89,396.717,111.96,386.87,111.773" fill="#181818" style="stroke:#181818;stroke-width:1;stroke-linejoin:miter;stroke-miterlimit:10;"/><text x="434.04" y="123.93" fill="#000" font-size="13" textLength="106.533">Artifact retrieval</text></g><!--link P43 to P44--><g class="link" data-entity-1="ent0003" data-entity-2="ent0004" id="lnk13" data-source-line="21" data-link-type="dependency"><path d="M402.2,200.303 C453.05,203.063 519.047,206.651 568.917,209.361" style="stroke:#181818;stroke-width:1;" fill="none" id="P43-to-P44"/><polygon points="573.91,209.633,565.14,205.15,568.917,209.361,564.706,213.139,573.91,209.633" fill="#181818" style="stroke:#181818;stroke-width:1;stroke-linejoin:miter;stroke-miterlimit:10;"/><text x="433.04" y="197.93" fill="#000" font-size="13" textLength="108.151">Container image</text></g><!--link P44 to Registry2--><g class="link" data-entity-1="ent0004" data-entity-2="ent0008" id="lnk14" data-source-line="22" data-link-type="dependency"><path d="M694.82,209.613 C743.31,206.953 807.307,203.436 860.607,200.516" style="stroke:#181818;stroke-width:1;" fill="none" id="P44-to-Registry2"/><polygon points="865.6,200.243,856.395,196.741,860.607,200.516,856.832,204.729,865.6,200.243" fill="#181818" style="stroke:#181818;stroke-width:1;stroke-linejoin:miter;stroke-miterlimit:10;"/><text x="743.86" y="197.93" fill="#000" font-size="13" textLength="75.715">Push image</text></g><!--link Registry2 to P44--><g class="link" data-entity-1="ent0008" data-entity-2="ent0004" id="lnk15" data-source-line="23" data-link-type="dependency"><path d="M885.07,219.463 C869.3,224.593 852.15,229.253 835.86,231.863 C788.03,239.533 775.05,236.823 726.86,231.863 C716.38,230.793 710.243,229.964 699.583,227.944" style="stroke:#181818;stroke-width:1;" fill="none" id="Registry2-to-P44"/><polygon points="694.67,227.013,702.768,232.618,699.583,227.944,704.257,224.758,694.67,227.013" fill="#181818" style="stroke:#181818;stroke-width:1;stroke-linejoin:miter;stroke-miterlimit:10;"/><text x="727.86" y="227.93" fill="#000" font-size="13" textLength="107.491">Image reference</text></g><!--link P42 to P45--><g class="link" data-entity-1="ent0002" data-entity-2="ent0005" id="lnk16" data-source-line="25" data-link-type="dependency"><path d="M386.65,75.343 C401.17,72.793 417.21,70.353 432.04,68.863 C549.17,57.183 579.34,58.263 696.86,64.863 C763.16,68.593 833.986,77.186 884.226,84.046" style="stroke:#181818;stroke-width:1;" fill="none" id="P42-to-P45"/><polygon points="889.18,84.723,880.804,79.542,884.226,84.046,879.722,87.468,889.18,84.723" fill="#181818" style="stroke:#181818;stroke-width:1;stroke-linejoin:miter;stroke-miterlimit:10;"/><text x="577.45" y="56.93" fill="#000" font-size="13" textLength="114.874">Artifact metadata</text></g><!--link P44 to P45--><g class="link" data-entity-1="ent0004" data-entity-2="ent0005" id="lnk17" data-source-line="26" data-link-type="dependency"><path d="M694.92,189.363 C705.55,185.193 716.53,180.893 726.86,176.863 C782.14,155.353 840.731,132.851 884.891,115.941" style="stroke:#181818;stroke-width:1;" fill="none" id="P44-to-P45"/><polygon points="889.56,114.153,879.725,113.636,884.891,115.941,882.586,121.107,889.56,114.153" fill="#181818" style="stroke:#181818;stroke-width:1;stroke-linejoin:miter;stroke-miterlimit:10;"/><text x="727.86" y="130.93" fill="#000" font-size="13" textLength="107.853">Image metadata</text></g><!--link P45 to DB3--><g class="link" data-entity-1="ent0005" data-entity-2="ent0007" id="lnk18" data-source-line="28" data-link-type="dependency"><path d="M1003.33,92.863 C1072.8,92.863 1185.1,92.863 1251.44,92.863" style="stroke:#181818;stroke-width:1;" fill="none" id="P45-to-DB3"/><polygon points="1256.44,92.863,1247.44,88.863,1251.44,92.863,1247.44,96.863,1256.44,92.863" fill="#181818" style="stroke:#181818;stroke-width:1;stroke-linejoin:miter;stroke-miterlimit:10;"/><text x="1057.67" y="88.93" fill="#000" font-size="13" textLength="168.232">Artifact / Image metadata</text></g><?plantuml-src hLLTR-is37tNhn3wSFUK5N5iFmpOW3H9im3vMbjSO81VL8TnlEj8cIndwByVAScAt0vOiLq_sU8XUKJoqAOs3V0rNA7X2Py_plc8JxMfZw8qV2EagE0CqZ3MmD5mexYkgvFXXrf3QMeb6QCN8IkCSfV-E2xa4vHGNu4_T7LpAEIkCvVEt77Hydqw7gAJGZuRfGEsJ-pHoH0zAQJ5yPcIHjGIT25NPoJeuPCXF2talcjFt4AGEJ6hwjReDuzFX_Yi9zEpAEG6Z3W88xn3nXXzlOeM7UP8P_Vw1qRWvDRJyEz9ZCIYx5LhAWtFlwqjQlumOMMZkWE_2vVX0thzHy8ObesFHhzGGVXFhbHSU8vjP9q4gx8r9y_4sdfI20YzFTODj2nORWa2GeFHDLn5Gu4c7f4YuaQvfjeoEYLhu8mOMtfdlXtVGhYcQ3Y21bd2ZIfMEUPmzXq8EPpTkGSZerEoObrZx_iFG2RXhmkHOZ_md__hWxxhnTV56WKpulF5VhtxVRFOll3DT3jTBkZrVqLdvXyqEOTBezv8YfzJ9LvVQVJ26Ee2cdrotC9OHldsZJ17fSzE1VuZ6GW_8-5_5KsDLOQ8AsdkpmvQh-XiF7GY_KD34efTdet6A9MNQPOCVL1s3eoS6q21UTXa22FrWoQc_5SGZJaLSdQ2yfj7fqCqQlz9DSshAB_nHu7AE13pE7msTCZjdbFwyEwoRTVqTytPl-s0bB7G83VSsHZ7DogzTjN30S-yoZCIbwrqRFJQoMZwwIArhFWzhikcWz5I0qYKmWp7Hh-n8CT9vFDUqOoEhRblT-25QMrT41DiBX3f-gcJfZu3RuqmNKjnl6op7Ask4s_nCQcPAjvfcpNxa1LhQhVoHSErLbqRvU_HDdRedxPDYAvWpOEYze3SBurq2BZlHulxxT83GxC6yFwktt-tR7RRrSlkQRLTyYzyktjPFQvcqvVLRllzzyj6oHhhJ8E3gHGkqBeKRfLyViT44ibf8yom9wJk3Vr9ofP_AUHQLQqJI3uUud4PxBKgeMqZCYZsyF_Daw63tGI6uli1ef6VDg0DpVEX9fBUSpBqnEMm19nsN3E5Z2_huIZCKfqlIb9xxv0L_a1Eq7dYuJE9KKijZgWm2_7l0xiZvdQtjYXxaWos11B3krTg_c0HzXt9OAtSADzIumZwgWQhGwE1Qen3lBXYOj9Wv6MZvB6tzxePtdldpgk_4ys-Q4-lIk3oSx_cl8zBgoGQ9A-UtEdGNPT-pxOIPTyYnhp5nKXx17cc7tGNT-jl?></g></svg>