<svg xmlns="http://www.w3.org/2000/svg" xmlns:xlink="http://www.w3.org/1999/xlink" version="1.1" data-diagram-type="SEQUENCE" style="width:2535px;height:1744px;background:#FFFFFF;" width="2535px" height="1744px" viewBox="0 0 2535 1744" zoomAndPan="magnify" preserveAspectRatio="none" contentStyleType="text/css"><?plantuml 1.2026.7beta11?><defs/><g font-family="sans-serif" lengthAdjust="spacing"><g class="title" data-source-line="1"><text x="1069.285" y="27.995" fill="#000" font-size="14" textLength="394.946" font-weight="700">Nexus Deploy - Application Deployment Sequence</text></g><rect x="13" y="672.984" width="2502.256" height="960.398" fill="none" style="stroke:#000;stroke-width:1.5;"/><rect x="32" y="839.453" width="2458.256" height="779.93" fill="none" style="stroke:#000;stroke-width:1.5;"/><rect x="51" y="1297.25" width="2414.256" height="308.133" fill="none" style="stroke:#000;stroke-width:1.5;"/><g><title>Developer</title><rect x="63.5" y="123.594" width="8" height="1533.789" fill="#000" fill-opacity="0"/><line x1="67" y1="123.594" x2="67" y2="1657.383" style="stroke:#181818;stroke-width:0.5;stroke-dasharray:5,5;"/></g><g><title>Git Provider</title><rect x="160.938" y="123.594" width="8" height="1533.789" fill="#000" fill-opacity="0"/><line x1="164.438" y1="123.594" x2="164.438" y2="1657.383" style="stroke:#181818;stroke-width:0.5;stroke-dasharray:5,5;"/></g><g><title>Nginx</title><rect x="286.875" y="123.594" width="8" height="1533.789" fill="#000" fill-opacity="0"/><line x1="290.375" y1="123.594" x2="290.375" y2="1657.383" style="stroke:#181818;stroke-width:0.5;stroke-dasharray:5,5;"/></g><g><title>API . Webhook Service</title><rect x="426.535" y="123.594" width="8" height="1533.789" fill="#000" fill-opacity="0"/><line x1="430.035" y1="123.594" x2="430.035" y2="1657.383" style="stroke:#181818;stroke-width:0.5;stroke-dasharray:5,5;"/></g><g><title>Pipeline Service</title><rect x="584.885" y="123.594" width="8" height="1533.789" fill="#000" fill-opacity="0"/><line x1="588.385" y1="123.594" x2="588.385" y2="1657.383" style="stroke:#181818;stroke-width:0.5;stroke-dasharray:5,5;"/></g><g><title>PostgreSQL</title><rect x="786.372" y="123.594" width="8" height="1533.789" fill="#000" fill-opacity="0"/><line x1="789.872" y1="123.594" x2="789.872" y2="1657.383" style="stroke:#181818;stroke-width:0.5;stroke-dasharray:5,5;"/></g><g><title>Redis</title><rect x="869.954" y="123.594" width="8" height="1533.789" fill="#000" fill-opacity="0"/><line x1="873.454" y1="123.594" x2="873.454" y2="1657.383" style="stroke:#181818;stroke-width:0.5;stroke-dasharray:5,5;"/></g><g><title>Pipeline Orchestrator</title><rect x="987.377" y="123.594" width="8" height="1533.789" fill="#000" fill-opacity="0"/><line x1="990.877" y1="123.594" x2="990.877" y2="1657.383" style="stroke:#181818;stroke-width:0.5;stroke-dasharray:5,5;"/></g><g><title>RabbitMQ</title><rect x="1119.874" y="123.594" width="8" height="1533.789" fill="#000" fill-opacity="0"/><line x1="1123.374" y1="123.594" x2="1123.374" y2="1657.383" style="stroke:#181818;stroke-width:0.5;stroke-dasharray:5,5;"/></g><g><title>Worker</title><rect x="1214.092" y="123.594" width="8" height="1533.789" fill="#000" fill-opacity="0"/><line x1="1217.592" y1="123.594" x2="1217.592" y2="1657.383" style="stroke:#181818;stroke-width:0.5;stroke-dasharray:5,5;"/></g><g><title>Docker Sandbox</title><rect x="1396.231" y="123.594" width="8" height="1533.789" fill="#000" fill-opacity="0"/><line x1="1399.731" y1="123.594" x2="1399.731" y2="1657.383" style="stroke:#181818;stroke-width:0.5;stroke-dasharray:5,5;"/></g><g><title>Artifact Manager</title><rect x="1536.309" y="123.594" width="8" height="1533.789" fill="#000" fill-opacity="0"/><line x1="1539.809" y1="123.594" x2="1539.809" y2="1657.383" style="stroke:#181818;stroke-width:0.5;stroke-dasharray:5,5;"/></g><g><title>Container Registry</title><rect x="1684.323" y="123.594" width="8" height="1533.789" fill="#000" fill-opacity="0"/><line x1="1687.823" y1="123.594" x2="1687.823" y2="1657.383" style="stroke:#181818;stroke-width:0.5;stroke-dasharray:5,5;"/></g><g><title>Deployment Manager</title><rect x="1849.451" y="123.594" width="8" height="1533.789" fill="#000" fill-opacity="0"/><line x1="1852.951" y1="123.594" x2="1852.951" y2="1657.383" style="stroke:#181818;stroke-width:0.5;stroke-dasharray:5,5;"/></g><g><title>Deployment Platform</title><rect x="2035.468" y="123.594" width="8" height="1533.789" fill="#000" fill-opacity="0"/><line x1="2038.968" y1="123.594" x2="2038.968" y2="1657.383" style="stroke:#181818;stroke-width:0.5;stroke-dasharray:5,5;"/></g><g><title>Health Checker</title><rect x="2188.083" y="123.594" width="8" height="1533.789" fill="#000" fill-opacity="0"/><line x1="2191.583" y1="123.594" x2="2191.583" y2="1657.383" style="stroke:#181818;stroke-width:0.5;stroke-dasharray:5,5;"/></g><g><title>Prometheus</title><rect x="2311.417" y="123.594" width="8" height="1533.789" fill="#000" fill-opacity="0"/><line x1="2314.917" y1="123.594" x2="2314.917" y2="1657.383" style="stroke:#181818;stroke-width:0.5;stroke-dasharray:5,5;"/></g><g><title>Notification Service</title><rect x="2445.756" y="123.594" width="8" height="1533.789" fill="#000" fill-opacity="0"/><line x1="2449.256" y1="123.594" x2="2449.256" y2="1657.383" style="stroke:#181818;stroke-width:0.5;stroke-dasharray:5,5;"/></g><text x="27.999" y="120.292" fill="#000" font-size="14" textLength="72.003">Developer</text><ellipse cx="67" cy="55.797" rx="8" ry="8" fill="#E2E2F0" style="stroke:#181818;stroke-width:0.5;"/><path d="M67,63.797 L67,90.797 M54,71.797 L80,71.797 M67,90.797 L54,105.797 M67,90.797 L80,105.797" style="stroke:#181818;stroke-width:0.5;" fill="none"/><rect x="116.001" y="92.297" width="96.872" height="30.297" fill="#E2E2F0" style="stroke:#181818;stroke-width:0.5;" rx="2.5" ry="2.5"/><text x="123.001" y="112.292" fill="#000" font-size="14" textLength="82.872">Git Provider</text><rect x="263.171" y="92.297" width="54.407" height="30.297" fill="#E2E2F0" style="stroke:#181818;stroke-width:0.5;" rx="2.5" ry="2.5"/><text x="270.171" y="112.292" fill="#000" font-size="14" textLength="40.407">Nginx</text><rect x="344.33" y="92.297" width="171.411" height="30.297" fill="#E2E2F0" style="stroke:#181818;stroke-width:0.5;" rx="2.5" ry="2.5"/><text x="351.33" y="112.292" fill="#000" font-size="14" textLength="157.411">API / Webhook Service</text><rect x="525.741" y="92.297" width="125.289" height="30.297" fill="#E2E2F0" style="stroke:#181818;stroke-width:0.5;" rx="2.5" ry="2.5"/><text x="532.741" y="112.292" fill="#000" font-size="14" textLength="111.289">Pipeline Service</text><rect x="742.496" y="92.297" width="94.753" height="30.297" fill="#E2E2F0" style="stroke:#181818;stroke-width:0.5;" rx="2.5" ry="2.5"/><text x="749.496" y="112.292" fill="#000" font-size="14" textLength="80.753">PostgreSQL</text><rect x="847.249" y="92.297" width="52.411" height="30.297" fill="#E2E2F0" style="stroke:#181818;stroke-width:0.5;" rx="2.5" ry="2.5"/><text x="854.249" y="112.292" fill="#000" font-size="14" textLength="38.411">Redis</text><rect x="909.66" y="92.297" width="162.436" height="30.297" fill="#E2E2F0" style="stroke:#181818;stroke-width:0.5;" rx="2.5" ry="2.5"/><text x="916.66" y="112.292" fill="#000" font-size="14" textLength="148.436">Pipeline Orchestrator</text><rect x="1082.095" y="92.297" width="82.558" height="30.297" fill="#E2E2F0" style="stroke:#181818;stroke-width:0.5;" rx="2.5" ry="2.5"/><text x="1089.095" y="112.292" fill="#000" font-size="14" textLength="68.558">RabbitMQ</text><rect x="1185.271" y="92.297" width="64.641" height="30.297" fill="#E2E2F0" style="stroke:#181818;stroke-width:0.5;" rx="2.5" ry="2.5"/><text x="1192.271" y="112.292" fill="#000" font-size="14" textLength="50.641">Worker</text><rect x="1335.265" y="92.297" width="128.933" height="30.297" fill="#E2E2F0" style="stroke:#181818;stroke-width:0.5;" rx="2.5" ry="2.5"/><text x="1342.265" y="112.292" fill="#000" font-size="14" textLength="114.933">Docker Sandbox</text><rect x="1474.197" y="92.297" width="131.223" height="30.297" fill="#E2E2F0" style="stroke:#181818;stroke-width:0.5;" rx="2.5" ry="2.5"/><text x="1481.197" y="112.292" fill="#000" font-size="14" textLength="117.223">Artifact Manager</text><rect x="1615.42" y="92.297" width="144.806" height="30.297" fill="#E2E2F0" style="stroke:#181818;stroke-width:0.5;" rx="2.5" ry="2.5"/><text x="1622.42" y="112.292" fill="#000" font-size="14" textLength="130.806">Container Registry</text><rect x="1770.226" y="92.297" width="165.45" height="30.297" fill="#E2E2F0" style="stroke:#181818;stroke-width:0.5;" rx="2.5" ry="2.5"/><text x="1777.226" y="112.292" fill="#000" font-size="14" textLength="151.45">Deployment Manager</text><rect x="1957.282" y="92.297" width="163.372" height="30.297" fill="#E2E2F0" style="stroke:#181818;stroke-width:0.5;" rx="2.5" ry="2.5"/><text x="1964.282" y="112.292" fill="#000" font-size="14" textLength="149.372">Deployment Platform</text><rect x="2130.654" y="92.297" width="121.857" height="30.297" fill="#E2E2F0" style="stroke:#181818;stroke-width:0.5;" rx="2.5" ry="2.5"/><text x="2137.654" y="112.292" fill="#000" font-size="14" textLength="107.857">Health Checker</text><rect x="2265.839" y="92.297" width="98.157" height="30.297" fill="#E2E2F0" style="stroke:#181818;stroke-width:0.5;" rx="2.5" ry="2.5"/><text x="2272.839" y="112.292" fill="#000" font-size="14" textLength="84.157">Prometheus</text><rect x="2373.996" y="92.297" width="150.521" height="30.297" fill="#E2E2F0" style="stroke:#181818;stroke-width:0.5;" rx="2.5" ry="2.5"/><text x="2380.996" y="112.292" fill="#000" font-size="14" textLength="136.521">Notification Service</text><text x="27.999" y="1670.378" fill="#000" font-size="14" textLength="72.003">Developer</text><ellipse cx="67" cy="1682.18" rx="8" ry="8" fill="#E2E2F0" style="stroke:#181818;stroke-width:0.5;"/><path d="M67,1690.18 L67,1717.18 M54,1698.18 L80,1698.18 M67,1717.18 L54,1732.18 M67,1717.18 L80,1732.18" style="stroke:#181818;stroke-width:0.5;" fill="none"/><rect x="116.001" y="1657.383" width="96.872" height="30.297" fill="#E2E2F0" style="stroke:#181818;stroke-width:0.5;" rx="2.5" ry="2.5"/><text x="123.001" y="1677.378" fill="#000" font-size="14" textLength="82.872">Git Provider</text><rect x="263.171" y="1657.383" width="54.407" height="30.297" fill="#E2E2F0" style="stroke:#181818;stroke-width:0.5;" rx="2.5" ry="2.5"/><text x="270.171" y="1677.378" fill="#000" font-size="14" textLength="40.407">Nginx</text><rect x="344.33" y="1657.383" width="171.411" height="30.297" fill="#E2E2F0" style="stroke:#181818;stroke-width:0.5;" rx="2.5" ry="2.5"/><text x="351.33" y="1677.378" fill="#000" font-size="14" textLength="157.411">API / Webhook Service</text><rect x="525.741" y="1657.383" width="125.289" height="30.297" fill="#E2E2F0" style="stroke:#181818;stroke-width:0.5;" rx="2.5" ry="2.5"/><text x="532.741" y="1677.378" fill="#000" font-size="14" textLength="111.289">Pipeline Service</text><rect x="742.496" y="1657.383" width="94.753" height="30.297" fill="#E2E2F0" style="stroke:#181818;stroke-width:0.5;" rx="2.5" ry="2.5"/><text x="749.496" y="1677.378" fill="#000" font-size="14" textLength="80.753">PostgreSQL</text><rect x="847.249" y="1657.383" width="52.411" height="30.297" fill="#E2E2F0" style="stroke:#181818;stroke-width:0.5;" rx="2.5" ry="2.5"/><text x="854.249" y="1677.378" fill="#000" font-size="14" textLength="38.411">Redis</text><rect x="909.66" y="1657.383" width="162.436" height="30.297" fill="#E2E2F0" style="stroke:#181818;stroke-width:0.5;" rx="2.5" ry="2.5"/><text x="916.66" y="1677.378" fill="#000" font-size="14" textLength="148.436">Pipeline Orchestrator</text><rect x="1082.095" y="1657.383" width="82.558" height="30.297" fill="#E2E2F0" style="stroke:#181818;stroke-width:0.5;" rx="2.5" ry="2.5"/><text x="1089.095" y="1677.378" fill="#000" font-size="14" textLength="68.558">RabbitMQ</text><rect x="1185.271" y="1657.383" width="64.641" height="30.297" fill="#E2E2F0" style="stroke:#181818;stroke-width:0.5;" rx="2.5" ry="2.5"/><text x="1192.271" y="1677.378" fill="#000" font-size="14" textLength="50.641">Worker</text><rect x="1335.265" y="1657.383" width="128.933" height="30.297" fill="#E2E2F0" style="stroke:#181818;stroke-width:0.5;" rx="2.5" ry="2.5"/><text x="1342.265" y="1677.378" fill="#000" font-size="14" textLength="114.933">Docker Sandbox</text><rect x="1474.197" y="1657.383" width="131.223" height="30.297" fill="#E2E2F0" style="stroke:#181818;stroke-width:0.5;" rx="2.5" ry="2.5"/><text x="1481.197" y="1677.378" fill="#000" font-size="14" textLength="117.223">Artifact Manager</text><rect x="1615.42" y="1657.383" width="144.806" height="30.297" fill="#E2E2F0" style="stroke:#181818;stroke-width:0.5;" rx="2.5" ry="2.5"/><text x="1622.42" y="1677.378" fill="#000" font-size="14" textLength="130.806">Container Registry</text><rect x="1770.226" y="1657.383" width="165.45" height="30.297" fill="#E2E2F0" style="stroke:#181818;stroke-width:0.5;" rx="2.5" ry="2.5"/><text x="1777.226" y="1677.378" fill="#000" font-size="14" textLength="151.45">Deployment Manager</text><rect x="1957.282" y="1657.383" width="163.372" height="30.297" fill="#E2E2F0" style="stroke:#181818;stroke-width:0.5;" rx="2.5" ry="2.5"/><text x="1964.282" y="1677.378" fill="#000" font-size="14" textLength="149.372">Deployment Platform</text><rect x="2130.654" y="1657.383" width="121.857" height="30.297" fill="#E2E2F0" style="stroke:#181818;stroke-width:0.5;" rx="2.5" ry="2.5"/><text x="2137.654" y="1677.378" fill="#000" font-size="14" textLength="107.857">Health Checker</text><rect x="2265.839" y="1657.383" width="98.157" height="30.297" fill="#E2E2F0" style="stroke:#181818;stroke-width:0.5;" rx="2.5" ry="2.5"/><text x="2272.839" y="1677.378" fill="#000" font-size="14" textLength="84.157">Prometheus</text><rect x="2373.996" y="1657.383" width="150.521" height="30.297" fill="#E2E2F0" style="stroke:#181818;stroke-width:0.5;" rx="2.5" ry="2.5"/><text x="2380.996" y="1677.378" fill="#000" font-size="14" textLength="136.521">Notification Service</text><polygon points="152.438,148.727,162.438,152.727,152.438,156.727,156.438,152.727" fill="#181818" style="stroke:#181818;stroke-width:1;stroke-linejoin:miter;stroke-miterlimit:10;"/><line x1="67" y1="152.727" x2="158.438" y2="152.727" style="stroke:#181818;stroke-width:1;"/><text x="74" y="147.661" fill="#000" font-size="13" textLength="66.574">Push code</text><polygon points="278.375,177.859,288.375,181.859,278.375,185.859,282.375,181.859" fill="#181818" style="stroke:#181818;stroke-width:1;stroke-linejoin:miter;stroke-miterlimit:10;"/><line x1="164.438" y1="181.859" x2="284.375" y2="181.859" style="stroke:#181818;stroke-width:1;"/><text x="171.438" y="176.793" fill="#000" font-size="13" textLength="101.937">Webhook event</text><polygon points="418.035,206.992,428.035,210.992,418.035,214.992,422.035,210.992" fill="#181818" style="stroke:#181818;stroke-width:1;stroke-linejoin:miter;stroke-miterlimit:10;"/><line x1="290.375" y1="210.992" x2="424.035" y2="210.992" style="stroke:#181818;stroke-width:1;"/><text x="297.375" y="205.926" fill="#000" font-size="13" textLength="115.661">Forward webhook</text><line x1="430.035" y1="240.125" x2="472.035" y2="240.125" style="stroke:#181818;stroke-width:1;"/><line x1="472.035" y1="240.125" x2="472.035" y2="253.125" style="stroke:#181818;stroke-width:1;"/><line x1="431.035" y1="253.125" x2="472.035" y2="253.125" style="stroke:#181818;stroke-width:1;"/><polygon points="441.035,249.125,431.035,253.125,441.035,257.125,437.035,253.125" fill="#181818" style="stroke:#181818;stroke-width:1;stroke-linejoin:miter;stroke-miterlimit:10;"/><text x="437.035" y="235.059" fill="#000" font-size="13" textLength="119.05">Validate signature</text><polygon points="861.454,278.258,871.454,282.258,861.454,286.258,865.454,282.258" fill="#181818" style="stroke:#181818;stroke-width:1;stroke-linejoin:miter;stroke-miterlimit:10;"/><line x1="430.035" y1="282.258" x2="867.454" y2="282.258" style="stroke:#181818;stroke-width:1;"/><text x="437.035" y="277.192" fill="#000" font-size="13" textLength="129.029">Check idempotency</text><polygon points="441.035,307.391,431.035,311.391,441.035,315.391,437.035,311.391" fill="#181818" style="stroke:#181818;stroke-width:1;stroke-linejoin:miter;stroke-miterlimit:10;"/><line x1="435.035" y1="311.391" x2="872.454" y2="311.391" style="stroke:#181818;stroke-width:1;stroke-dasharray:2,2;"/><text x="447.035" y="306.325" fill="#000" font-size="13" textLength="133.288">Event not processed</text><polygon points="576.385,336.523,586.385,340.523,576.385,344.523,580.385,340.523" fill="#181818" style="stroke:#181818;stroke-width:1;stroke-linejoin:miter;stroke-miterlimit:10;"/><line x1="430.035" y1="340.523" x2="582.385" y2="340.523" style="stroke:#181818;stroke-width:1;"/><text x="437.035" y="335.458" fill="#000" font-size="13" textLength="105.009">Identify pipeline</text><polygon points="777.872,365.656,787.872,369.656,777.872,373.656,781.872,369.656" fill="#181818" style="stroke:#181818;stroke-width:1;stroke-linejoin:miter;stroke-miterlimit:10;"/><line x1="588.385" y1="369.656" x2="783.872" y2="369.656" style="stroke:#181818;stroke-width:1;"/><text x="595.385" y="364.59" fill="#000" font-size="13" textLength="177.487">Load pipeline configuration</text><polygon points="599.385,394.789,589.385,398.789,599.385,402.789,595.385,398.789" fill="#181818" style="stroke:#181818;stroke-width:1;stroke-linejoin:miter;stroke-miterlimit:10;"/><line x1="593.385" y1="398.789" x2="788.872" y2="398.789" style="stroke:#181818;stroke-width:1;stroke-dasharray:2,2;"/><text x="605.385" y="393.723" fill="#000" font-size="13" textLength="116.486">Pipeline definition</text><polygon points="978.877,423.922,988.877,427.922,978.877,431.922,982.877,427.922" fill="#181818" style="stroke:#181818;stroke-width:1;stroke-linejoin:miter;stroke-miterlimit:10;"/><line x1="588.385" y1="427.922" x2="984.877" y2="427.922" style="stroke:#181818;stroke-width:1;"/><text x="595.385" y="422.856" fill="#000" font-size="13" textLength="102.451">Trigger pipeline</text><polygon points="800.872,453.055,790.872,457.055,800.872,461.055,796.872,457.055" fill="#181818" style="stroke:#181818;stroke-width:1;stroke-linejoin:miter;stroke-miterlimit:10;"/><line x1="794.872" y1="457.055" x2="989.877" y2="457.055" style="stroke:#181818;stroke-width:1;"/><text x="806.872" y="451.989" fill="#000" font-size="13" textLength="125.144">Create pipeline run</text><polygon points="1111.374,482.188,1121.374,486.188,1111.374,490.188,1115.374,486.188" fill="#181818" style="stroke:#181818;stroke-width:1;stroke-linejoin:miter;stroke-miterlimit:10;"/><line x1="990.877" y1="486.188" x2="1117.374" y2="486.188" style="stroke:#181818;stroke-width:1;"/><text x="997.877" y="481.122" fill="#000" font-size="13" textLength="81.129">Enqueue job</text><polygon points="1205.592,511.32,1215.592,515.32,1205.592,519.32,1209.592,515.32" fill="#181818" style="stroke:#181818;stroke-width:1;stroke-linejoin:miter;stroke-miterlimit:10;"/><line x1="1123.374" y1="515.32" x2="1211.592" y2="515.32" style="stroke:#181818;stroke-width:1;"/><text x="1130.374" y="510.254" fill="#000" font-size="13" textLength="70.218">Deliver job</text><polygon points="1387.731,540.453,1397.731,544.453,1387.731,548.453,1391.731,544.453" fill="#181818" style="stroke:#181818;stroke-width:1;stroke-linejoin:miter;stroke-miterlimit:10;"/><line x1="1217.592" y1="544.453" x2="1393.731" y2="544.453" style="stroke:#181818;stroke-width:1;"/><text x="1224.592" y="539.387" fill="#000" font-size="13" textLength="158.139">Create isolated sandbox</text><polygon points="175.438,569.586,165.438,573.586,175.438,577.586,171.438,573.586" fill="#181818" style="stroke:#181818;stroke-width:1;stroke-linejoin:miter;stroke-miterlimit:10;"/><line x1="169.438" y1="573.586" x2="1216.592" y2="573.586" style="stroke:#181818;stroke-width:1;"/><text x="181.438" y="568.52" fill="#000" font-size="13" textLength="83.548">Fetch source</text><polygon points="1205.592,598.719,1215.592,602.719,1205.592,606.719,1209.592,602.719" fill="#181818" style="stroke:#181818;stroke-width:1;stroke-linejoin:miter;stroke-miterlimit:10;"/><line x1="164.438" y1="602.719" x2="1211.592" y2="602.719" style="stroke:#181818;stroke-width:1;stroke-dasharray:2,2;"/><text x="171.438" y="597.653" fill="#000" font-size="13" textLength="80.418">Source code</text><polygon points="1387.731,627.852,1397.731,631.852,1387.731,635.852,1391.731,631.852" fill="#181818" style="stroke:#181818;stroke-width:1;stroke-linejoin:miter;stroke-miterlimit:10;"/><line x1="1217.592" y1="631.852" x2="1393.731" y2="631.852" style="stroke:#181818;stroke-width:1;"/><text x="1224.592" y="626.786" fill="#000" font-size="13" textLength="88.486">Execute build</text><polygon points="1228.592,656.984,1218.592,660.984,1228.592,664.984,1224.592,660.984" fill="#181818" style="stroke:#181818;stroke-width:1;stroke-linejoin:miter;stroke-miterlimit:10;"/><line x1="1222.592" y1="660.984" x2="1398.731" y2="660.984" style="stroke:#181818;stroke-width:1;stroke-dasharray:2,2;"/><text x="1234.592" y="655.918" fill="#000" font-size="13" textLength="73.83">Build result</text><path d="M13,672.984 L77.443,672.984 L77.443,680.117 L67.443,690.117 L13,690.117 L13,672.984" style="stroke:#000;stroke-width:1.5;" fill="#EEE"/><rect x="13" y="672.984" width="2502.256" height="960.398" fill="none" style="stroke:#000;stroke-width:1.5;"/><text x="28" y="686.051" fill="#000" font-size="13" textLength="19.443" font-weight="700">alt</text><text x="92.443" y="685.195" fill="#000" font-size="11" textLength="80.599" font-weight="700">[Build failed]</text><polygon points="800.872,717.25,790.872,721.25,800.872,725.25,796.872,721.25" fill="#181818" style="stroke:#181818;stroke-width:1;stroke-linejoin:miter;stroke-miterlimit:10;"/><line x1="794.872" y1="721.25" x2="1216.592" y2="721.25" style="stroke:#181818;stroke-width:1;"/><text x="806.872" y="716.184" fill="#000" font-size="13" textLength="100.75">Store failed run</text><polygon points="2437.256,746.383,2447.256,750.383,2437.256,754.383,2441.256,750.383" fill="#181818" style="stroke:#181818;stroke-width:1;stroke-linejoin:miter;stroke-miterlimit:10;"/><line x1="1217.592" y1="750.383" x2="2443.256" y2="750.383" style="stroke:#181818;stroke-width:1;"/><text x="1224.592" y="745.317" fill="#000" font-size="13" textLength="155.46">Send failure notification</text><polygon points="78,775.516,68,779.516,78,783.516,74,779.516" fill="#181818" style="stroke:#181818;stroke-width:1;stroke-linejoin:miter;stroke-miterlimit:10;"/><line x1="72" y1="779.516" x2="2448.256" y2="779.516" style="stroke:#181818;stroke-width:1;stroke-dasharray:2,2;"/><text x="84" y="774.45" fill="#000" font-size="13" textLength="72.782">Build failed</text><line x1="13" y1="788.516" x2="2515.256" y2="788.516" style="stroke:#000;stroke-width:1;stroke-dasharray:2,2;"/><text x="18" y="800.726" fill="#000" font-size="11" textLength="109.876" font-weight="700">[Build successful]</text><polygon points="1387.731,823.453,1397.731,827.453,1387.731,831.453,1391.731,827.453" fill="#181818" style="stroke:#181818;stroke-width:1;stroke-linejoin:miter;stroke-miterlimit:10;"/><line x1="1217.592" y1="827.453" x2="1393.731" y2="827.453" style="stroke:#181818;stroke-width:1;"/><text x="1224.592" y="822.387" fill="#000" font-size="13" textLength="61.382">Run tests</text><path d="M32,839.453 L96.443,839.453 L96.443,846.586 L86.443,856.586 L32,856.586 L32,839.453" style="stroke:#000;stroke-width:1.5;" fill="#EEE"/><rect x="32" y="839.453" width="2458.256" height="779.93" fill="none" style="stroke:#000;stroke-width:1.5;"/><text x="47" y="852.52" fill="#000" font-size="13" textLength="19.443" font-weight="700">alt</text><text x="111.443" y="851.664" fill="#000" font-size="11" textLength="82.285" font-weight="700">[Tests failed]</text><polygon points="800.872,883.719,790.872,887.719,800.872,891.719,796.872,887.719" fill="#181818" style="stroke:#181818;stroke-width:1;stroke-linejoin:miter;stroke-miterlimit:10;"/><line x1="794.872" y1="887.719" x2="1216.592" y2="887.719" style="stroke:#181818;stroke-width:1;"/><text x="806.872" y="882.653" fill="#000" font-size="13" textLength="109.224">Store test failure</text><polygon points="2437.256,912.852,2447.256,916.852,2437.256,920.852,2441.256,916.852" fill="#181818" style="stroke:#181818;stroke-width:1;stroke-linejoin:miter;stroke-miterlimit:10;"/><line x1="1217.592" y1="916.852" x2="2443.256" y2="916.852" style="stroke:#181818;stroke-width:1;"/><text x="1224.592" y="911.786" fill="#000" font-size="13" textLength="155.46">Send failure notification</text><polygon points="78,941.984,68,945.984,78,949.984,74,945.984" fill="#181818" style="stroke:#181818;stroke-width:1;stroke-linejoin:miter;stroke-miterlimit:10;"/><line x1="72" y1="945.984" x2="2448.256" y2="945.984" style="stroke:#181818;stroke-width:1;stroke-dasharray:2,2;"/><text x="84" y="940.918" fill="#000" font-size="13" textLength="74.731">Tests failed</text><line x1="32" y1="954.984" x2="2490.256" y2="954.984" style="stroke:#000;stroke-width:1;stroke-dasharray:2,2;"/><text x="37" y="967.195" fill="#000" font-size="11" textLength="90.927" font-weight="700">[Tests passed]</text><polygon points="1387.731,989.922,1397.731,993.922,1387.731,997.922,1391.731,993.922" fill="#181818" style="stroke:#181818;stroke-width:1;stroke-linejoin:miter;stroke-miterlimit:10;"/><line x1="1217.592" y1="993.922" x2="1393.731" y2="993.922" style="stroke:#181818;stroke-width:1;"/><text x="1224.592" y="988.856" fill="#000" font-size="13" textLength="142.987">Build container image</text><polygon points="1675.823,1019.055,1685.823,1023.055,1675.823,1027.055,1679.823,1023.055" fill="#181818" style="stroke:#181818;stroke-width:1;stroke-linejoin:miter;stroke-miterlimit:10;"/><line x1="1399.731" y1="1023.055" x2="1681.823" y2="1023.055" style="stroke:#181818;stroke-width:1;"/><text x="1406.731" y="1017.989" fill="#000" font-size="13" textLength="75.715">Push image</text><polygon points="1410.731,1048.188,1400.731,1052.188,1410.731,1056.188,1406.731,1052.188" fill="#181818" style="stroke:#181818;stroke-width:1;stroke-linejoin:miter;stroke-miterlimit:10;"/><line x1="1404.731" y1="1052.188" x2="1686.823" y2="1052.188" style="stroke:#181818;stroke-width:1;stroke-dasharray:2,2;"/><text x="1416.731" y="1047.122" fill="#000" font-size="13" textLength="86.265">Image stored</text><polygon points="1527.809,1077.32,1537.809,1081.32,1527.809,1085.32,1531.809,1081.32" fill="#181818" style="stroke:#181818;stroke-width:1;stroke-linejoin:miter;stroke-miterlimit:10;"/><line x1="1217.592" y1="1081.32" x2="1533.809" y2="1081.32" style="stroke:#181818;stroke-width:1;"/><text x="1224.592" y="1076.254" fill="#000" font-size="13" textLength="92.358">Store artifacts</text><polygon points="800.872,1106.453,790.872,1110.453,800.872,1114.453,796.872,1110.453" fill="#181818" style="stroke:#181818;stroke-width:1;stroke-linejoin:miter;stroke-miterlimit:10;"/><line x1="794.872" y1="1110.453" x2="1538.809" y2="1110.453" style="stroke:#181818;stroke-width:1;"/><text x="806.872" y="1105.387" fill="#000" font-size="13" textLength="152.725">Store artifact metadata</text><polygon points="1840.951,1135.586,1850.951,1139.586,1840.951,1143.586,1844.951,1139.586" fill="#181818" style="stroke:#181818;stroke-width:1;stroke-linejoin:miter;stroke-miterlimit:10;"/><line x1="1217.592" y1="1139.586" x2="1846.951" y2="1139.586" style="stroke:#181818;stroke-width:1;"/><text x="1224.592" y="1134.52" fill="#000" font-size="13" textLength="135.281">Request deployment</text><polygon points="2026.968,1164.719,2036.968,1168.719,2026.968,1172.719,2030.968,1168.719" fill="#181818" style="stroke:#181818;stroke-width:1;stroke-linejoin:miter;stroke-miterlimit:10;"/><line x1="1852.951" y1="1168.719" x2="2032.968" y2="1168.719" style="stroke:#181818;stroke-width:1;"/><text x="1859.951" y="1163.653" fill="#000" font-size="13" textLength="90.143">Deploy image</text><polygon points="1863.951,1193.852,1853.951,1197.852,1863.951,1201.852,1859.951,1197.852" fill="#181818" style="stroke:#181818;stroke-width:1;stroke-linejoin:miter;stroke-miterlimit:10;"/><line x1="1857.951" y1="1197.852" x2="2037.968" y2="1197.852" style="stroke:#181818;stroke-width:1;stroke-dasharray:2,2;"/><text x="1869.951" y="1192.786" fill="#000" font-size="13" textLength="120.713">Deployment result</text><polygon points="2179.583,1222.984,2189.583,1226.984,2179.583,1230.984,2183.583,1226.984" fill="#181818" style="stroke:#181818;stroke-width:1;stroke-linejoin:miter;stroke-miterlimit:10;"/><line x1="1852.951" y1="1226.984" x2="2185.583" y2="1226.984" style="stroke:#181818;stroke-width:1;"/><text x="1859.951" y="1221.918" fill="#000" font-size="13" textLength="119.761">Run health checks</text><polygon points="2049.968,1252.117,2039.968,1256.117,2049.968,1260.117,2045.968,1256.117" fill="#181818" style="stroke:#181818;stroke-width:1;stroke-linejoin:miter;stroke-miterlimit:10;"/><line x1="2043.968" y1="1256.117" x2="2190.583" y2="1256.117" style="stroke:#181818;stroke-width:1;"/><text x="2055.968" y="1251.051" fill="#000" font-size="13" textLength="115.832">Check application</text><polygon points="2179.583,1281.25,2189.583,1285.25,2179.583,1289.25,2183.583,1285.25" fill="#181818" style="stroke:#181818;stroke-width:1;stroke-linejoin:miter;stroke-miterlimit:10;"/><line x1="2038.968" y1="1285.25" x2="2185.583" y2="1285.25" style="stroke:#181818;stroke-width:1;stroke-dasharray:2,2;"/><text x="2045.968" y="1280.184" fill="#000" font-size="13" textLength="86.766">Health status</text><path d="M51,1297.25 L115.443,1297.25 L115.443,1304.383 L105.443,1314.383 L51,1314.383 L51,1297.25" style="stroke:#000;stroke-width:1.5;" fill="#EEE"/><rect x="51" y="1297.25" width="2414.256" height="308.133" fill="none" style="stroke:#000;stroke-width:1.5;"/><text x="66" y="1310.317" fill="#000" font-size="13" textLength="19.443" font-weight="700">alt</text><text x="130.443" y="1309.46" fill="#000" font-size="11" textLength="58.174" font-weight="700">[Healthy]</text><polygon points="800.872,1341.516,790.872,1345.516,800.872,1349.516,796.872,1345.516" fill="#181818" style="stroke:#181818;stroke-width:1;stroke-linejoin:miter;stroke-miterlimit:10;"/><line x1="794.872" y1="1345.516" x2="2190.583" y2="1345.516" style="stroke:#181818;stroke-width:1;"/><text x="806.872" y="1340.45" fill="#000" font-size="13" textLength="185.358">Mark deployment successful</text><polygon points="2302.917,1370.648,2312.917,1374.648,2302.917,1378.648,2306.917,1374.648" fill="#181818" style="stroke:#181818;stroke-width:1;stroke-linejoin:miter;stroke-miterlimit:10;"/><line x1="2191.583" y1="1374.648" x2="2308.917" y2="1374.648" style="stroke:#181818;stroke-width:1;"/><text x="2198.583" y="1369.583" fill="#000" font-size="13" textLength="99.334">Publish metrics</text><polygon points="78,1399.781,68,1403.781,78,1407.781,74,1403.781" fill="#181818" style="stroke:#181818;stroke-width:1;stroke-linejoin:miter;stroke-miterlimit:10;"/><line x1="72" y1="1403.781" x2="2448.256" y2="1403.781" style="stroke:#181818;stroke-width:1;"/><text x="84" y="1398.715" fill="#000" font-size="13" textLength="150.928">Deployment successful</text><line x1="51" y1="1412.781" x2="2465.256" y2="1412.781" style="stroke:#000;stroke-width:1;stroke-dasharray:2,2;"/><text x="56" y="1424.992" fill="#000" font-size="11" textLength="73.563" font-weight="700">[Unhealthy]</text><polygon points="1863.951,1447.719,1853.951,1451.719,1863.951,1455.719,1859.951,1451.719" fill="#181818" style="stroke:#181818;stroke-width:1;stroke-linejoin:miter;stroke-miterlimit:10;"/><line x1="1857.951" y1="1451.719" x2="2190.583" y2="1451.719" style="stroke:#181818;stroke-width:1;"/><text x="1869.951" y="1446.653" fill="#000" font-size="13" textLength="102.292">Trigger rollback</text><polygon points="2026.968,1476.852,2036.968,1480.852,2026.968,1484.852,2030.968,1480.852" fill="#181818" style="stroke:#181818;stroke-width:1;stroke-linejoin:miter;stroke-miterlimit:10;"/><line x1="1852.951" y1="1480.852" x2="2032.968" y2="1480.852" style="stroke:#181818;stroke-width:1;"/><text x="1859.951" y="1475.786" fill="#000" font-size="13" textLength="162.018">Restore previous release</text><polygon points="1863.951,1505.984,1853.951,1509.984,1863.951,1513.984,1859.951,1509.984" fill="#181818" style="stroke:#181818;stroke-width:1;stroke-linejoin:miter;stroke-miterlimit:10;"/><line x1="1857.951" y1="1509.984" x2="2037.968" y2="1509.984" style="stroke:#181818;stroke-width:1;stroke-dasharray:2,2;"/><text x="1869.951" y="1504.918" fill="#000" font-size="13" textLength="119.958">Rollback complete</text><polygon points="800.872,1535.117,790.872,1539.117,800.872,1543.117,796.872,1539.117" fill="#181818" style="stroke:#181818;stroke-width:1;stroke-linejoin:miter;stroke-miterlimit:10;"/><line x1="794.872" y1="1539.117" x2="1851.951" y2="1539.117" style="stroke:#181818;stroke-width:1;"/><text x="806.872" y="1534.051" fill="#000" font-size="13" textLength="107.986">Mark rolled back</text><polygon points="2437.256,1564.25,2447.256,1568.25,2437.256,1572.25,2441.256,1568.25" fill="#181818" style="stroke:#181818;stroke-width:1;stroke-linejoin:miter;stroke-miterlimit:10;"/><line x1="1852.951" y1="1568.25" x2="2443.256" y2="1568.25" style="stroke:#181818;stroke-width:1;"/><text x="1859.951" y="1563.184" fill="#000" font-size="13" textLength="165.528">Send rollback notification</text><polygon points="78,1593.383,68,1597.383,78,1601.383,74,1597.383" fill="#181818" style="stroke:#181818;stroke-width:1;stroke-linejoin:miter;stroke-miterlimit:10;"/><line x1="72" y1="1597.383" x2="2448.256" y2="1597.383" style="stroke:#181818;stroke-width:1;stroke-dasharray:2,2;"/><text x="84" y="1592.317" fill="#000" font-size="13" textLength="155.448">Deployment rolled back</text><?plantuml-src ZLPDKzim4BtxLsYuPthdq1aWq383D11QpegyYLKKoKXoW7_VrQSbuq0vCDBkq-w-rTCwbbi1v0xU1aEMq0lrJXRahEy5PzHo9QDn3zAIDRmC81aq3MLMQNGTGAWUTDFqL5lEU4yHTlA3MxBIwi1Rq2U46eA66d6tu_BDk_ogTfwjhiatyWIRJgbdJAeFd847ewU6hdWFWakeKCauWIfZTnhMzpSUj3oltG_GSkCzVdKapI_DEZ1MKwJlmQLX4f1kDjpUtdlO_G33f9udfPzZUyAoTYyLGnjPKzbkL6XLC4rwXUijtWQvfPBkOhnahA4NIbgA93Got76i-JtI3Pj9-l7MoyYZ-IXy9QZTAhqFLn4tDVedK64xSj41Ioq8fadNjTg3xM08zp9k9rfIo3QfjTI1TxmtJPOfMNntKYIdP3MOZZ3LefIT0UrUX-X9iiCpIB89PlGxKPwIAwLVgMx9Qq0rZJDdxnygU4ij4CDtajf1GmPuKI74SoRuCFQzilYMiBpWMkGeboupaSgINYi6na2RmsGXdfBh5c78Z_H9xats8d9vZfWRHTliHxvootU3zft2jfpxf4N8l6nXooKFi39egNR4Fsg-GsKK5LI0LCM51jUKN8SUv4UaVo6ElNpngxzgqpJ1YDxmGj2zn107N7btjBeyuRNaNDmeL1wqn8JtKsA30gx0ieuODMYMH53cMNj7bCXCdiitO0CcsWnSuFL4UnNYtBc81ZC851BAErgsb0jtfGJ_YiYkKsji1aI0RrED2O9sE90X3ahCAINhtn-8C5VCAFtJINOG1gB93Cp9R3k83qKbkW-391QlomI48_FejXMPeuJSoLJk3F8_QNr2xMCjdbumzpGyePaI4xtG1vO79D_Zn1jFfDlzdeTb6Y4JO7OlokZN3aICQyLi6Nc6ftxHQ30ZEcFgpYOamSb8SVJGMPhZSCQRTDzml8vsdEGZpn7e1aEStVxL-Hy64xOPi9WcAJP9__CvufSW2AmB6-P6P44zOkgAmXobu--K8sNb175XBCxb8hXJSd2zZyOwgs_tBTNFHS_ADpD_QlnQUQri14Uve4LpPgeZITArefUpgV91B-_VilkYyl9Eqh3MIeWDPS_reQDN_m1UkFWjWWDNo4Q306gWFdvS2Wyn7RwkVI_0mcTvnrQxAd46VbLeFJeIjNfsp7RxUBjdCsFqE5VS0l_z0m00?></g></svg>